<?xml version="1.0" standalone="no"?>
<!DOCTYPE svg PUBLIC "-//W3C//DTD SVG 20010904//EN"
 "http://www.w3.org/TR/2001/REC-SVG-20010904/DTD/svg10.dtd">
<svg version="1.0" xmlns="http://www.w3.org/2000/svg"
 width="512.000000pt" height="512.000000pt" viewBox="0 0 512.000000 512.000000"
 preserveAspectRatio="xMidYMid meet">

<g transform="translate(0.000000,512.000000) scale(0.100000,-0.100000)"
fill="#000000" stroke="none">
<path d="M0 2560 l0 -2560 2560 0 2560 0 0 2560 0 2560 -2560 0 -2560 0 0
-2560z m3310 745 l745 -745 -748 -747 -747 -748 -432 435 -433 435 430 -428
430 -427 742 742 742 742 -237 239 c-130 131 -254 252 -274 268 l-37 30 -1
-480 c0 -265 2 -481 5 -481 3 0 14 5 25 12 10 7 23 9 27 4 9 -9 -36 -48 -82
-73 -16 -9 -33 -21 -37 -27 -4 -6 -8 -8 -8 -4 0 3 -21 0 -47 -8 -86 -26 -152
-14 -188 34 -9 11 -21 8 -69 -14 -80 -36 -213 -46 -264 -18 -34 18 -34 18 -52
-4 -26 -32 -40 -27 -40 13 0 19 -2 35 -5 35 -2 0 -39 -14 -82 -31 -134 -54
-263 -52 -315 3 l-28 31 -73 -33 c-55 -25 -90 -34 -150 -38 -88 -5 -162 15
-172 49 -6 17 -16 19 -100 19 -89 0 -95 -1 -114 -26 -17 -22 -27 -52 -37 -109
-6 -41 -59 -158 -75 -168 -29 -18 -49 -1 -49 42 0 42 52 151 97 205 30 36 23
45 -13 17 -33 -26 -46 -26 -68 -3 -15 18 -15 22 0 64 18 47 57 81 107 93 21 6
27 4 27 -9 0 -9 -5 -16 -12 -16 -9 0 -9 -3 0 -12 7 -7 12 -20 12 -30 0 -10 5
-18 11 -18 6 0 8 7 5 16 -3 9 -6 186 -6 395 l0 379 -60 0 -60 0 0 80 c0 44 -3
80 -8 80 -4 0 -122 -115 -262 -255 l-254 -256 239 -242 240 -242 -245 243
-245 242 745 745 c410 410 747 745 750 745 3 0 340 -335 750 -745z"/>
<path d="M2093 3577 c-255 -254 -463 -466 -463 -470 0 -5 24 -8 53 -7 28 1
213 1 410 1 l357 -1 0 -95 0 -94 -97 -3 -98 -3 -3 -97 -3 -98 96 0 95 0 0 -95
0 -95 -95 0 -96 0 3 -117 3 -118 108 -3 108 -3 -7 -33 c-5 -29 -3 -35 15 -41
27 -8 28 -46 1 -70 -11 -10 -20 -25 -20 -33 0 -10 -10 -13 -40 -10 -49 4 -54
-14 -7 -33 44 -19 131 -16 197 6 l55 18 -42 14 c-51 17 -117 86 -134 139 -16
53 -24 515 -10 628 19 160 83 233 215 243 127 11 235 -49 264 -143 6 -23 12
-91 12 -153 l0 -111 -100 0 -100 0 0 93 c0 107 -10 131 -55 125 -21 -2 -31
-10 -36 -28 -12 -42 -10 -554 2 -588 13 -38 35 -47 65 -27 22 14 24 22 26 133
l3 117 95 0 95 0 3 -133 c2 -116 0 -139 -18 -180 -13 -29 -17 -48 -10 -50 14
-5 13 -32 -2 -32 -21 0 -80 -52 -70 -62 14 -14 134 -11 185 4 l42 13 -52 3
-53 3 0 505 0 504 100 0 100 0 2 -177 3 -178 48 -3 47 -3 0 180 0 181 100 0
c55 0 100 3 100 8 0 7 -923 932 -930 932 -3 0 -213 -208 -467 -463z"/>
<path d="M1925 2897 c-3 -6 -4 -180 -3 -385 l3 -374 39 31 c22 17 50 34 63 37
l23 6 0 349 0 349 -60 0 c-39 0 -62 -4 -65 -13z"/>
<path d="M3190 2360 c0 -104 4 -190 8 -190 4 0 27 19 50 43 l42 43 0 147 0
147 -50 0 -50 0 0 -190z"/>
<path d="M3281 2184 c0 -11 3 -14 6 -6 3 7 2 16 -1 19 -3 4 -6 -2 -5 -13z"/>
<path d="M1999 2161 c-13 -11 -21 -22 -17 -26 8 -8 68 22 68 35 0 16 -26 11
-51 -9z"/>
<path d="M2455 2170 c-3 -5 -1 -10 4 -10 6 0 11 5 11 10 0 6 -2 10 -4 10 -3 0
-8 -4 -11 -10z"/>
<path d="M1629 2141 c-28 -28 -41 -81 -20 -81 12 0 47 49 61 84 13 35 -3 34
-41 -3z"/>
<path d="M3217 2138 l-25 -32 23 -18 c25 -19 80 -24 90 -8 3 6 1 10 -4 10 -6
0 -11 10 -11 23 0 12 -11 30 -25 39 -23 18 -24 17 -48 -14z"/>
<path d="M2408 2143 c7 -3 16 -2 19 1 4 3 -2 6 -13 5 -11 0 -14 -3 -6 -6z"/>
<path d="M2805 2121 c-8 -21 -2 -22 23 -2 22 16 22 17 3 17 -11 0 -23 -7 -26
-15z"/>
<path d="M1992 2113 c-25 -3 -32 -9 -30 -21 9 -46 133 -60 228 -27 l55 20 -97
3 c-78 2 -98 6 -98 17 0 8 -6 14 -12 13 -7 0 -28 -3 -46 -5z"/>
<path d="M3340 2080 c0 -12 27 -12 55 0 16 7 13 9 -17 9 -21 1 -38 -3 -38 -9z"/>
<path d="M1624 1929 c-33 -66 -45 -107 -34 -114 11 -7 31 32 55 103 23 71 13
76 -21 11z"/>
</g>
</svg>
